Coordinates
version=1
nRows=27
nColumns=33
inDegrees=yes

Units are S.I. units (second, meters, Newtons, ...)
Angles are in degrees.

endheader
time	ground_thorax_rot_x	ground_thorax_rot_y	ground_thorax_rot_z	ground_thorax_tx	ground_thorax_ty	ground_thorax_tz	clav_prot_r	clav_elev_r	scapula_abduction_r	scapula_elevation_r	scapula_upward_rot_r	scapula_winging_r	shoulder_elv_r	plane_of_elev_r	axial_rot_r	elbow_flexion_r	pro_sup_r	wrist_flex_r	wrist_dev_r	clav_prot_l	clav_elev_l	scapula_abduction_l	scapula_elevation_l	scapula_upward_rot_l	scapula_winging_l	shoulder_elv_l	plane_of_elev_l	axial_rot_l	elbow_flexion_l	pro_sup_l	wrist_flex_l	wrist_dev_l	
5.8600	-22.729435	-34.207904	53.211218	-27.108677	816.810782	-42.369998	28.121127	-45.000000	40.927943	-45.000000	-45.000000	-2623.830205	-2264.258698	158.670016	30.464474	3239.626393	-192.878597	12.074610	14.025776	-0.260419	32.213733	-30.844192	-45.000000	-45.000000	-3153.021752	-2967.772612	133.137851	-103.934009	349.332292	39.785840	13.618088	-16.310009	
5.8700	-22.993952	-34.180370	52.860041	-28.913123	818.322631	-42.471963	28.095886	-45.000000	40.991818	-45.000000	-45.000000	-2623.901194	-2264.155545	158.597391	30.255867	3239.594513	-193.057346	12.094004	14.062175	-0.251915	32.265775	-30.968746	-45.000000	-45.000000	-3152.892622	-2967.680776	133.125653	-103.957556	349.319281	39.552478	13.682477	-16.340092	
5.8800	-23.267319	-34.140888	52.489208	-30.714601	819.832258	-42.578736	28.055855	-45.000000	41.048218	-45.000000	-45.000000	-2623.964011	-2264.048056	158.534786	30.055008	3239.555058	-193.227831	12.123247	14.086747	-0.232937	32.320309	-31.104724	-45.000000	-45.000000	-3152.761928	-2967.599303	133.111810	-103.982166	349.304470	39.314615	13.743911	-16.369502	
5.8900	-23.541855	-34.094789	52.108481	-32.507615	821.334500	-42.690914	28.011144	-45.000000	41.099918	-45.000000	-45.000000	-2624.021090	-2263.939275	158.477170	29.861798	3239.516691	-193.389771	12.158075	14.102471	-0.211549	32.375221	-31.243201	-45.000000	-45.000000	-3152.632408	-2967.524368	133.098098	-104.011921	349.288403	39.073327	13.801780	-16.397833	
5.9000	-23.817508	-34.041755	51.718722	-34.288270	822.824857	-42.809375	27.960994	-45.000000	41.146920	-45.000000	-45.000000	-2624.073859	-2263.830167	158.425522	29.677387	3239.475411	-193.544774	12.200608	14.111161	-0.188054	32.430645	-31.385765	-45.000000	-45.000000	-3152.502178	-2967.457423	133.084033	-104.047419	349.271622	38.829966	13.855841	-16.425538	
5.9100	-24.085533	-33.988212	51.331339	-36.054314	824.299532	-42.934999	27.915627	-45.000000	41.192692	-45.000000	-45.000000	-2624.125689	-2263.725652	158.373818	29.502387	3239.441136	-193.695978	12.243805	14.117766	-0.169831	32.484838	-31.522494	-45.000000	-45.000000	-3152.373858	-2967.394157	133.073065	-104.091107	349.254217	38.585428	13.906128	-16.452286	
5.9200	-24.348112	-33.930222	50.943786	-37.804654	825.755175	-43.068378	27.870469	-45.000000	41.236602	-45.000000	-45.000000	-2624.178125	-2263.624058	158.324942	29.338539	3239.406987	-193.846834	12.290145	14.123662	-0.154352	32.538062	-31.658131	-45.000000	-45.000000	-3152.246066	-2967.337500	133.063123	-104.141730	349.235935	38.341212	13.952782	-16.478524	
5.9300	-24.596890	-33.875564	50.566430	-39.538831	827.188655	-43.209638	27.841408	-45.000000	41.281666	-45.000000	-45.000000	-2624.235357	-2263.531495	158.268774	29.189166	3239.386413	-194.000335	12.329901	14.135297	-0.153708	32.587952	-31.783174	-45.000000	-45.000000	-3152.117998	-2967.283939	133.056533	-104.201455	349.217497	38.097585	13.997140	-16.505623	
5.9400	-24.828784	-33.819538	50.203987	-41.256567	828.596997	-43.358439	27.821041	-45.000000	41.329269	-45.000000	-45.000000	-2624.302847	-2263.441733	158.209860	29.054658	3239.370468	-194.159780	12.365485	14.151741	-0.163359	32.634138	-31.898779	-45.000000	-45.000000	-3151.995228	-2967.232992	133.052447	-104.270778	349.194611	37.855818	14.039581	-16.531273	
5.9500	-25.049191	-33.761857	49.850079	-42.957486	829.977432	-43.514098	27.807000	-45.000000	41.373041	-45.000000	-45.000000	-2624.372935	-2263.355020	158.149264	28.932375	3239.360826	-194.326942	12.397603	14.170420	-0.177180	32.678840	-32.009086	-45.000000	-45.000000	-3151.874632	-2967.186720	133.051775	-104.347456	349.167741	37.617395	14.079506	-16.555703	
5.9600	-25.253911	-33.699692	49.511852	-44.640877	831.327341	-43.675716	27.794695	-45.000000	41.414878	-45.000000	-45.000000	-2624.450141	-2263.266007	158.091835	28.822497	3239.352003	-194.502298	12.428137	14.188889	-0.192966	32.720445	-32.110583	-45.000000	-45.000000	-3151.764656	-2967.139741	133.053174	-104.432447	349.133775	37.383621	14.116299	-16.575443	
5.9700	-25.448977	-33.634790	49.180167	-46.305845	832.644372	-43.842316	27.788835	-45.000000	41.449290	-45.000000	-45.000000	-2624.528198	-2263.179002	158.032673	28.726885	3239.349352	-194.684667	12.456260	14.207814	-0.211140	32.760610	-32.206851	-45.000000	-45.000000	-3151.656868	-2967.094803	133.054916	-104.523321	349.095433	37.155189	14.151128	-16.593451	
5.9800	-25.629044	-33.564397	48.864843	-47.951559	833.926450	-44.012942	27.780969	-45.000000	41.484187	-45.000000	-45.000000	-2624.614654	-2263.090354	157.979175	28.644031	3239.343916	-194.873344	12.484227	14.226458	-0.228918	32.797313	-32.290932	-45.000000	-45.000000	-3151.563822	-2967.044484	133.057759	-104.622516	349.050166	36.933203	14.183167	-16.605581	
5.9900	-25.805788	-33.488199	48.548512	-49.577548	835.171752	-44.186732	27.778429	-45.000000	41.513231	-45.000000	-45.000000	-2624.700891	-2263.005589	157.926297	28.574902	3239.339121	-195.065926	12.514211	14.246015	-0.246103	32.833705	-32.371318	-45.000000	-45.000000	-3151.471541	-2966.996440	133.057457	-104.726207	349.001670	36.719435	14.213945	-16.617146	
6.0000	-25.975150	-33.405998	48.239733	-51.183889	836.378643	-44.362946	27.774769	-45.000000	41.544665	-45.000000	-45.000000	-2624.793831	-2262.925561	157.879369	28.521966	3239.330190	-195.259728	12.546318	14.268561	-0.263603	32.866797	-32.440714	-45.000000	-45.000000	-3151.389476	-2966.944848	133.055249	-104.837849	348.952769	36.515533	14.242517	-16.627266	
6.0100	-26.152230	-33.316391	47.915981	-52.771173	837.545597	-44.540985	27.774073	-45.000000	41.568117	-45.000000	-45.000000	-2624.883527	-2262.856685	157.829692	28.488974	3239.323557	-195.451201	12.583157	14.295128	-0.279835	32.900325	-32.513579	-45.000000	-45.000000	-3151.297158	-2966.901692	133.044682	-104.951026	348.909945	36.324315	14.271831	-16.645310	
6.0200	-26.328253	-33.219240	47.589587	-54.340103	838.671048	-44.720366	27.764964	-45.000000	41.600300	-45.000000	-45.000000	-2624.977901	-2262.797200	157.789443	28.473761	3239.307447	-195.637547	12.625233	14.328424	-0.293384	32.930688	-32.577659	-45.000000	-45.000000	-3151.212407	-2966.860044	133.031575	-105.071060	348.875535	36.148450	14.298459	-16.668031	
6.0300	-26.504108	-33.116180	47.259339	-55.891403	839.753574	-44.900750	27.757688	-45.000000	41.626274	-45.000000	-45.000000	-2625.068720	-2262.744417	157.750047	28.475165	3239.294248	-195.817966	12.673118	14.363407	-0.306936	32.960926	-32.643967	-45.000000	-45.000000	-3151.123542	-2966.827752	133.016012	-105.196963	348.845578	35.990998	14.325164	-16.699472	
6.0400	-26.668900	-33.009995	46.939521	-57.425153	840.791681	-45.081849	27.738939	-45.000000	41.654850	-45.000000	-45.000000	-2625.156010	-2262.692716	157.724211	28.493319	3239.275885	-195.991973	12.725425	14.398963	-0.315815	32.988280	-32.701746	-45.000000	-45.000000	-3151.048672	-2966.800027	133.008594	-105.334909	348.821351	35.852374	14.348274	-16.735063	
6.0500	-26.823590	-32.901478	46.629613	-58.940751	841.783947	-45.263385	27.718984	-45.000000	41.671527	-45.000000	-45.000000	-2625.236674	-2262.639864	157.700831	28.528317	3239.264159	-196.161637	12.781921	14.430663	-0.325502	33.015170	-32.761101	-45.000000	-45.000000	-3150.975291	-2966.781937	133.005718	-105.480634	348.797201	35.731836	14.371150	-16.777547	
6.0600	-26.963566	-32.791145	46.335141	-60.436840	842.728929	-45.444963	27.688644	-45.000000	41.690260	-45.000000	-45.000000	-2625.314330	-2262.583875	157.693087	28.577871	3239.245064	-196.328018	12.841110	14.461720	-0.330334	33.039452	-32.810154	-45.000000	-45.000000	-3150.919682	-2966.766570	133.012872	-105.635085	348.775015	35.625519	14.390641	-16.821932	
6.0700	-27.091667	-32.679398	46.056327	-61.911934	843.625483	-45.626051	27.662150	-45.000000	41.697040	-45.000000	-45.000000	-2625.390625	-2262.525563	157.688360	28.640659	3239.231434	-196.494702	12.902496	14.488660	-0.339989	33.063468	-32.859528	-45.000000	-45.000000	-3150.868176	-2966.755723	133.023093	-105.790322	348.747055	35.528599	14.409927	-16.869007	
6.0800	-27.208409	-32.567761	45.789357	-63.364815	844.472719	-45.805907	27.632299	-45.000000	41.702548	-45.000000	-45.000000	-2625.464987	-2262.465353	157.694556	28.716883	3239.213996	-196.662957	12.963152	14.515340	-0.346300	33.085064	-32.900833	-45.000000	-45.000000	-3150.829121	-2966.744832	133.039331	-105.941481	348.717797	35.433803	14.428620	-16.916713	
6.0900	-27.324002	-32.449937	45.523049	-64.795241	845.270346	-45.983634	27.607652	-45.000000	41.700475	-45.000000	-45.000000	-2625.545331	-2262.409224	157.699582	28.806580	3239.197375	-196.835802	13.025863	14.543449	-0.359870	33.106867	-32.945520	-45.000000	-45.000000	-3150.787116	-2966.733897	133.047039	-106.080029	348.683962	35.334521	14.448561	-16.966922	
6.1000	-27.432341	-32.334525	45.262777	-66.204283	846.018850	-46.158244	27.579938	-45.000000	41.698808	-45.000000	-45.000000	-2625.620350	-2262.353482	157.715597	28.903922	3239.180956	-197.015295	13.084101	14.571602	-0.366599	33.126417	-32.983042	-45.000000	-45.000000	-3150.754882	-2966.721269	133.060525	-106.202133	348.648483	35.224786	14.469882	-17.016486	
6.1100	-27.535399	-32.220464	45.010037	-67.594247	846.719735	-46.328760	27.557526	-45.000000	41.688791	-45.000000	-45.000000	-2625.697768	-2262.302270	157.728502	29.013951	3239.172243	-197.206330	13.141586	14.597393	-0.381406	33.144340	-33.022115	-45.000000	-45.000000	-3150.719333	-2966.709335	133.072291	-106.305216	348.606133	35.100314	14.492021	-17.064734	
6.1200	-27.629710	-32.112548	44.764733	-68.967764	847.375292	-46.494213	27.533971	-45.000000	41.679182	-45.000000	-45.000000	-2625.766982	-2262.253444	157.749210	29.134867	3239.166351	-197.411454	13.191731	14.622848	-0.389361	33.159152	-33.049767	-45.000000	-45.000000	-3150.692057	-2966.696486	133.090711	-106.391518	348.565377	34.958056	14.517161	-17.113384	
